# AST/ASF file generated using VICON BodyLanguage
# -----------------------------------------------
:version 1.10
:name VICON
:units
  mass 1.0
  length 0.45
  angle deg
:documentation
   .ast/.asf automatically generated from VICON data using
   VICON BodyBuilder and BodyLanguage model FoxedUp or BRILLIANT.MOD
:root
   order TX TY TZ RX RY RZ
   axis XYZ
   position 0 0 0  
   orientation 0 0 0 
:bonedata
  begin
     id 1 
     name lhipjoint
     direction 0.561145 -0.797705 0.220866 
     length 2.46425 
     axis 0 0 0  XYZ
  end
  begin
     id 2 
     name lfemur
     direction 0.34202 -0.939693 0  
     length 7.95556  
     axis 0 0 20  XYZ
    dof rx ry rz
    limits (-160.0 20.0)
           (-70.0 70.0)
           (-60.0 70.0)
  end
  begin
     id 3 
     name ltibia
     direction 0.34202 -0.939693 0   
     length 7.9832   
     axis 0 0 20   XYZ
    dof rx
    limits (-10.0 170.0)
  end
  begin
     id 4 
     name lfoot
     direction 0.0723927 -0.198897 0.977343   
     length 2.23085   
     axis -90 7.62852e-016 20   XYZ
    dof rx rz
    limits (-45.0 90.0)
           (-70.0 20.0)
  end
  begin
     id 5 
     name ltoes
     direction 1.53826e-011 -4.21988e-011 1   
     length 1.12127   
     axis -90 7.62852e-016 20   XYZ
    dof rx
    limits (-90.0 20.0)
  end
  begin
     id 6 
     name rhipjoint
     direction -0.610499 -0.763299 0.21134   
     length 2.57533  
     axis 0 0 0  XYZ 
  end
  begin
     id 7 
     name rfemur
     direction -0.34202 -0.939693 0   
     length 8.65257   
     axis 0 0 -20   XYZ
    dof rx ry rz
    limits (-160.0 20.0)
           (-70.0 70.0)
           (-70.0 60.0)
  end
  begin
     id 8 
     name rtibia
     direction -0.342021 -0.939692 0   
     length 7.37807   
     axis 0 0 -20   XYZ
    dof rx
    limits (-10.0 170.0)
 end
 begin
     id 9 
     name rfoot
     direction -0.0239304 -0.0543852 0.998233   
     length 1.87018  
     axis -90 -7.62852e-016 -20   XYZ
    dof rx rz
    limits (-45.0 90.0)
           (-20.0 70.0)
  end
  begin
     id 10 
     name rtoes
     direction -1.53584e-011 -4.2242e-011 1   
     length 0.951568   
     axis -90 -7.62852e-016 -20   XYZ
    dof rx
    limits (-90.0 20.0)
  end
  begin
     id 11 
     name lowerback
     direction 0.00322089 0.999033 0.0438587   
     length 2.07568   
     axis 0 0 0   XYZ
    dof rx ry rz
    limits (-20.0 45.0)
           (-30.0 30.0)
           (-30.0 30.0)
  end
  begin
     id 12 
     name upperback
     direction -0.00321932 0.999732 -0.0229403   
     length 2.06253   
     axis 0 0 0   XYZ
    dof rx ry rz
    limits (-20.0 45.0)
           (-30.0 30.0)
           (-30.0 30.0)
  end
  begin
     id 13 
     name thorax
     direction -0.00537537 0.998955 -0.0453918   
     length 2.06975   
     axis 0 0 0   XYZ
    dof rx ry rz
    limits (-20.0 45.0)
           (-30.0 30.0)
           (-30.0 30.0)
  end
  begin
     id 14 
     name lowerneck
     direction -0.00013604 0.994111 0.108363   
     length 1.50836   
     axis 0 0 0   XYZ
    dof rx ry rz
    limits (-20.0 45.0)
           (-30.0 30.0)
           (-30.0 30.0)
  end
  begin
     id 15 
     name upperneck
     direction 0.0397262 0.983859 -0.174482   
     length 1.53037   
     axis 0 0 0   XYZ
    dof rx ry rz
    limits (-20.0 45.0)
           (-30.0 30.0)
           (-30.0 30.0)
  end
  begin
     id 16
     name head
     direction 0.0109991 0.997082 -0.0755378  
     length 1.56928  
     axis 0 0 0   XYZ
    dof rx ry rz
    limits (-20.0 45.0)
           (-30.0 30.0)
           (-30.0 30.0)
  end
  begin
     id 17 
     name lclavicle
     direction 0.964749 0.254 -0.068874  
     length 3.26503  
     axis 0 0 0   XYZ
    dof ry rz
    limits (-20.0 10.0)
           (0.0 20.0)
  end
  begin
     id 18 
     name lhumerus
     direction 1 -4.48941e-011 -2.05079e-027   
     length 5.68236   
     axis 180 -30 -90   XYZ
    dof rx ry rz
    limits (-60.0 90.0)
           (-90.0 90.0)
           (-90.0 90.0)
  end
  begin
     id 19
     name lradius
     direction 1 -4.48956e-011 6.2882e-027   
     length 3.17112   
     axis 180 -30 -90   XYZ
    dof rx
    limits (-10.0 170.0)
  end
  begin
     id 20
     name lwrist
     direction 1 -4.49014e-011 1.73219e-026   
     length 1.58556   
     axis -1.04724e-014 90 90   XYZ
    dof ry
    limits (-180.0 0.0)
 end
  begin
     id 21 
     name lhand
     direction 1 -4.49312e-011 3.46438e-026   
     length 0.632691   
     axis -2.21057e-014 90 90   XYZ
    dof rx rz
    limits (-90.0 90.0)
           (-45.0 45.0)
  end
  begin
     id 22 
     name lfingers
     direction 1 -4.48894e-011 6.92876e-026   
     length 0.510091   
     axis -4.42114e-014 90 90   XYZ
    dof rx
    limits (0.0 90.0)
  end
  begin
     id 23
     name lthumb
     direction 0.707107 -6.34705e-011 0.707107   
     length 0.732392   
     axis -90 45 2.85299e-015   XYZ
    dof rx rz
    limits (-45.0 45.0)
           (-45.0 45.0)
  end
  begin
     id 24 
     name rclavicle
     direction -0.954374 0.280496 -0.102435   
     length 3.25419  
     axis 0 0 0   XYZ 
    dof ry rz
    limits (-10.0 20.0)
           (-20.0 0.0)
  end
  begin
     id 25 
     name rhumerus
     direction -1 -4.48994e-011 -1.07204e-017  
     length 5.8712   
     axis 180 30 90   XYZ
    dof rx ry rz
    limits (-90.0 60.0)
           (-90.0 90.0)
           (-90.0 90.0)
  end
  begin
     id 26 
     name rradius
     direction -1 -4.48972e-011 5.89292e-027   
     length 3.37589   
     axis 180 30 90   XYZ
    dof rx
    limits (-10.0 170.0)
  end
  begin
     id 27 
     name rwrist
     direction -1 -4.48942e-011 1.73219e-026   
     length 1.68794   
     axis -1.04724e-014 -90 -90   XYZ
    dof ry
    limits (-180.0 0.0)
  end
  begin
     id 28
     name rhand
     direction -1 -4.48514e-011 3.46438e-026   
     length 0.603257   
     axis -2.21057e-014 -90 -90   XYZ
    dof rx rz
    limits (-90.0 90.0)
           (-45.0 45.0)
  end
  begin
     id 29
     name rfingers
     direction -1 -4.50028e-011 6.92876e-026   
     length 0.486362   
     axis -4.42114e-014 -90 -90   XYZ
    dof rx
    limits (0.0 90.0)
  end
  begin
     id 30
     name rthumb
     direction -0.707107 -6.34926e-011 0.707107   
     length 0.698321   
     axis -90 -45 -2.85299e-015   XYZ
    dof rx rz
    limits (-45.0 45.0)
           (-45.0 45.0)
  end
:hierarchy
  begin
    root lhipjoint rhipjoint lowerback
    lhipjoint lfemur
    lfemur ltibia
    ltibia lfoot
    lfoot ltoes
    rhipjoint rfemur
    rfemur rtibia
    rtibia rfoot
    rfoot rtoes
    lowerback upperback
    upperback thorax
    thorax lowerneck lclavicle rclavicle
    lowerneck upperneck
    upperneck head
    lclavicle lhumerus
    lhumerus lradius
    lradius lwrist
    lwrist lhand lthumb
    lhand lfingers
    rclavicle rhumerus
    rhumerus rradius
    rradius rwrist
    rwrist rhand rthumb
    rhand rfingers
  end

#!OML:ASF I:\Segmentation\Patient Classification 1\Patient 1\Session 1\Patient1.ASF
:FULLY-SPECIFIED
:DEGREES
3896
root -3.73187 18.4164 -3.83607 -342.048 -81.3215 -10.3626
lowerback -6.45735 1.39691 2.11093
upperback 3.12463 1.54568 1.5792
thorax 6.90927 0.805576 0.657855
lowerneck -18.6595 0.48634 1.91257
upperneck 18.8584 0.693436 -2.83555
head 9.0126 0.119725 -1.20048
rclavicle 7.15625e-015 -3.57812e-015
rhumerus -21.4767 -10.6039 -71.3569
rradius 28.9886
rwrist 19.9385
rhand -19.8927 21.8064
rfingers 7.12502
rthumb 6.44338 -8.07559
lclavicle 7.15625e-015 -3.57812e-015
lhumerus -32.6923 1.39492 84.5308
lradius 33.122
lwrist 9.72835
lhand -8.85119 34.8871
lfingers 7.12502
lthumb 17.0897 64.1555
rfemur -19.3672 -0.867126 23.8331
rtibia 27.8354
rfoot 11.2191 -1.94912
rtoes 5.68541
lfemur -27.2592 6.83601 -19.8286
ltibia 54.9685
lfoot -21.743 11.4886
ltoes -5.63762
3897
root -3.80517 18.3995 -3.84452 -342.278 -80.9682 -10.0495
lowerback -6.5439 1.41496 2.1928
upperback 3.13496 1.55639 1.61032
thorax 6.97199 0.813699 0.64868
lowerneck -18.8308 0.648601 1.93553
upperneck 19.1608 0.949292 -3.00323
head 9.15602 0.218358 -1.23133
rclavicle 3.06128e-014 -3.18055e-015
rhumerus -20.9865 -10.3735 -71.3418
rradius 29.3309
rwrist 19.3946
rhand -19.9798 21.8005
rfingers 7.12502
rthumb 6.3593 -8.08402
lclavicle 3.06128e-014 -3.18055e-015
lhumerus -32.7165 1.31573 84.647
lradius 33.5136
lwrist 9.96374
lhand -8.67756 34.8805
lfingers 7.12502
lthumb 17.2568 64.1343
rfemur -19.3419 -1.09335 23.9415
rtibia 28.2232
rfoot 11.6263 -1.76866
rtoes 5.74657
lfemur -28.0018 6.84182 -20.1527
ltibia 54.1538
lfoot -22.1375 11.5878
ltoes -7.12337
3898
root -3.87896 18.3829 -3.8525 -342.623 -80.6235 -9.63565
lowerback -6.60522 1.45314 2.27263
upperback 3.1316 1.59823 1.60473
thorax 7.00682 0.838108 0.60517
lowerneck -18.9274 0.788334 2.00844
upperneck 19.4249 1.15837 -3.15991
head 9.27259 0.300184 -1.27218
rclavicle 2.59414e-014 2.98177e-014
rhumerus -20.6055 -10.1384 -71.3628
rradius 29.7745
rwrist 18.781
rhand -20.1644 21.7782
rfingers 7.12502
rthumb 6.18113 -8.11162
lclavicle 2.59414e-014 2.98177e-014
lhumerus -32.7519 1.13806 84.7431
lradius 33.8823
lwrist 10.1706
lhand -8.47287 34.906
lfingers 7.12502
lthumb 17.4538 64.1424
rfemur -19.2805 -1.32236 24.0265
rtibia 28.5777
rfoot 12.053 -1.56576
rtoes 5.92658
lfemur -28.6943 6.83759 -20.4991
ltibia 53.2739
lfoot -22.5766 11.6724
ltoes -8.2494
3899
root -3.95279 18.3674 -3.86004 -343.039 -80.2912 -9.15629
lowerback -6.64154 1.50508 2.34829
upperback 3.11754 1.66212 1.57254
thorax 7.01681 0.873905 0.538043
lowerneck -18.951 0.904023 2.11793
upperneck 19.6202 1.32597 -3.32457
head 9.35186 0.365284 -1.32667
rclavicle -1.21259e-014 7.15625e-015
rhumerus -20.3013 -9.90023 -71.4126
rradius 30.2975
rwrist 18.1212
rhand -20.3763 21.7128
rfingers 7.12502
rthumb 5.9765 -8.18294
lclavicle -1.21259e-014 7.15625e-015
lhumerus -32.7862 0.915033 84.8237
lradius 34.2338
lwrist 10.3229
lhand -8.28052 34.9406
lfingers 7.12502
lthumb 17.6389 64.1605
rfemur -19.2041 -1.50274 24.083
rtibia 28.9021
rfoot 12.4574 -1.32202
rtoes 6.02794
lfemur -29.3524 6.85637 -20.8768
ltibia 52.3222
lfoot -22.952 11.8577
ltoes -9.44551
3900
root -4.02637 18.3535 -3.86703 -343.492 -79.9685 -8.64263
lowerback -6.65494 1.55789 2.41384
upperback 3.10106 1.72949 1.53388
thorax 7.01111 0.911096 0.46953
lowerneck -18.9377 1.00607 2.22519
upperneck 19.7458 1.47803 -3.50005
head 9.40035 0.422546 -1.38602
rclavicle 8.54774e-015 7.95139e-015
rhumerus -20.026 -9.64176 -71.4737
rradius 30.8747
rwrist 17.4343
rhand -20.5623 21.6499
rfingers 7.12502
rthumb 5.79694 -8.25083
lclavicle 8.54774e-015 7.95139e-015
lhumerus -32.7986 0.716666 84.9015
lradius 34.5616
lwrist 10.4164
lhand -8.14472 34.9396
lfingers 7.12502
lthumb 17.7696 64.1477
rfemur -19.1183 -1.61356 24.1143
rtibia 29.1912
rfoot 12.8178 -1.0201
rtoes 5.95985
lfemur -29.9849 6.91254 -21.2886
ltibia 51.2959
lfoot -23.1899 12.217
ltoes -10.9874
3901
root -4.09987 18.3414 -3.87328 -343.913 -79.6541 -8.16022
lowerback -6.65392 1.60745 2.47709
upperback 3.08674 1.79295 1.49788
thorax 6.99943 0.946134 0.404211
lowerneck -18.9122 1.10745 2.31917
upperneck 19.8207 1.6343 -3.68075
head 9.42957 0.480717 -1.44398
rclavicle -2.29596e-014 -4.37326e-015
rhumerus -19.7592 -9.36464 -71.5364
rradius 31.4911
rwrist 16.7624
rhand -20.7237 21.6649
rfingers 7.12502
rthumb 5.64113 -8.24004
lclavicle -2.29596e-014 -4.37326e-015
lhumerus -32.7808 0.562697 84.976
lradius 34.8554
lwrist 10.4775
lhand -8.08065 34.8772
lfingers 7.12502
lthumb 17.8312 64.0797
rfemur -19.0135 -1.68432 24.1386
rtibia 29.4274
rfoot 13.1359 -0.680332
rtoes 5.73603
lfemur -30.589 7.00811 -21.723
ltibia 50.1987
lfoot -23.3142 12.7068
ltoes -12.7528
3902
root -4.17361 18.3316 -3.87859 -344.189 -79.3523 -7.81808
lowerback -6.65673 1.65425 2.55527
upperback 3.07506 1.85057 1.46716
thorax 6.9933 0.97881 0.33553
lowerneck -18.8854 1.22071 2.41124
upperneck 19.8746 1.8055 -3.85194
head 9.45214 0.54702 -1.49611
rclavicle -8.44835e-015 2.10712e-014
rhumerus -19.4942 -9.06226 -71.6105
rradius 32.1348
rwrist 16.1146
rhand -20.905 21.7936
rfingers 7.12502
rthumb 5.46608 -8.11592
lclavicle -8.44835e-015 2.10712e-014
lhumerus -32.731 0.474918 85.0267
lradius 35.0968
lwrist 10.513
lhand -8.06641 34.759
lfingers 7.12502
lthumb 17.8449 63.9603
rfemur -18.882 -1.79753 24.1899
rtibia 29.5903
rfoot 13.4307 -0.392064
rtoes 5.4796
lfemur -31.1625 7.12867 -22.1462
ltibia 49.0402
lfoot -23.4635 13.1422
ltoes -14.1087
3903
root -4.24791 18.3243 -3.88299 -344.288 -79.0692 -7.64677
lowerback -6.67587 1.69792 2.64698
upperback 3.06607 1.90152 1.44205
thorax 6.99988 1.00868 0.264933
lowerneck -18.8523 1.34665 2.5122
upperneck 19.9224 1.9876 -4.00467
head 9.47221 0.621334 -1.54177
rclavicle 1.98785e-015 1.47101e-014
rhumerus -19.2304 -8.7133 -71.7115
rradius 32.7974
rwrist 15.4632
rhand -21.1615 22.0096
rfingers 7.12502
rthumb 5.21837 -7.90618
lclavicle 1.98785e-015 1.47101e-014
lhumerus -32.6535 0.473044 85.0403
lradius 35.2793
lwrist 10.5125
lhand -8.07866 34.6059
lfingers 7.12502
lthumb 17.8331 63.8082
rfemur -18.7161 -2.00214 24.2822
rtibia 29.6621
rfoot 13.7166 -0.223143
rtoes 5.33252
lfemur -31.6999 7.25385 -22.5337
ltibia 47.8294
lfoot -23.7848 13.3236
ltoes -14.3756
3904
root -4.32297 18.3193 -3.88667 -344.244 -78.8061 -7.61674
lowerback -6.71089 1.73726 2.73936
upperback 3.05905 1.9452 1.42586
thorax 7.01753 1.03479 0.202994
lowerneck -18.7942 1.47374 2.61265
upperneck 19.9531 2.16805 -4.1421
head 9.48197 0.697016 -1.58211
rclavicle -2.96189e-014 -1.11319e-014
rhumerus -18.9767 -8.29071 -71.84
rradius 33.4797
rwrist 14.7852
rhand -21.4883 22.224
rfingers 7.12502
rthumb 4.90288 -7.69931
lclavicle -2.96189e-014 -1.11319e-014
lhumerus -32.5694 0.540791 85.034
lradius 35.4316
lwrist 10.4856
lhand -8.11392 34.4566
lfingers 7.12502
lthumb 17.7992 63.662
rfemur -18.5052 -2.27314 24.408
rtibia 29.635
rfoot 13.9919 -0.154031
rtoes 5.33668
lfemur -32.1982 7.38733 -22.8878
ltibia 46.5721
lfoot -24.2554 13.2295
ltoes -13.6418
3905
root -4.39855 18.3161 -3.88963 -344.058 -78.5607 -7.72505
lowerback -6.75873 1.77203 2.83051
upperback 3.05049 1.98101 1.42709
thorax 7.0403 1.05646 0.159409
lowerneck -18.7011 1.59275 2.68729
upperneck 19.9491 2.34181 -4.2674
head 9.47292 0.769753 -1.61459
rclavicle 2.0276e-014 -3.18055e-015
rhumerus -18.7375 -7.78089 -71.9798
rradius 34.1828
rwrist 14.0675
rhand -21.8059 22.337
rfingers 7.12502
rthumb 4.5962 -7.59314
lclavicle 2.0276e-014 -3.18055e-015
lhumerus -32.5042 0.650372 85.0382
lradius 35.5903
lwrist 10.4573
lhand -8.18189 34.3525
lfingers 7.12502
lthumb 17.7338 63.5638
rfemur -18.2538 -2.55553 24.5616
rtibia 29.5165
rfoot 14.2471 -0.118802
rtoes 5.51886
lfemur -32.6716 7.55391 -23.2198
ltibia 45.2683
lfoot -24.6807 13.0328
ltoes -12.7417
